<svg id="diagram9" width="100%" xmlns="http://www.w3.org/2000/svg" class="erDiagram" style="max-width: 855.19140625px;" viewBox="0 0 855.19140625 1030.25" role="graphics-document document" aria-roledescription="er"><style>#diagram9{font-family:Microsoft YaHei,Arial,sans-serif;font-size:16px;fill:#000000;}@keyframes edge-animation-frame{from{stroke-dashoffset:0;}}@keyframes dash{to{stroke-dashoffset:0;}}#diagram9 .edge-animation-slow{stroke-dasharray:9,5!important;stroke-dashoffset:900;animation:dash 50s linear infinite;stroke-linecap:round;}#diagram9 .edge-animation-fast{stroke-dasharray:9,5!important;stroke-dashoffset:900;animation:dash 20s linear infinite;stroke-linecap:round;}#diagram9 .error-icon{fill:#552222;}#diagram9 .error-text{fill:#552222;stroke:#552222;}#diagram9 .edge-thickness-normal{stroke-width:1px;}#diagram9 .edge-thickness-thick{stroke-width:3.5px;}#diagram9 .edge-pattern-solid{stroke-dasharray:0;}#diagram9 .edge-thickness-invisible{stroke-width:0;fill:none;}#diagram9 .edge-pattern-dashed{stroke-dasharray:3;}#diagram9 .edge-pattern-dotted{stroke-dasharray:2;}#diagram9 .marker{fill:#666;stroke:#666;}#diagram9 .marker.cross{stroke:#666;}#diagram9 svg{font-family:Microsoft YaHei,Arial,sans-serif;font-size:16px;}#diagram9 p{margin:0;}#diagram9 .entityBox{fill:#eee;stroke:#999;}#diagram9 .relationshipLabelBox{fill:hsl(-160, 0%, 93.3333333333%);opacity:0.7;background-color:hsl(-160, 0%, 93.3333333333%);}#diagram9 .relationshipLabelBox rect{opacity:0.5;}#diagram9 .labelBkg{background-color:rgba(237.9999999999, 237.9999999999, 237.9999999999, 0.5);}#diagram9 .edgeLabel .label{fill:#999;font-size:14px;}#diagram9 .label{font-family:Microsoft YaHei,Arial,sans-serif;color:#000000;}#diagram9 .edge-pattern-dashed{stroke-dasharray:8,8;}#diagram9 .node rect,#diagram9 .node circle,#diagram9 .node ellipse,#diagram9 .node polygon{fill:#eee;stroke:#999;stroke-width:1px;}#diagram9 .relationshipLine{stroke:#666;stroke-width:1;fill:none;}#diagram9 .marker{fill:none!important;stroke:#666!important;stroke-width:1;}#diagram9 .edgeLabel{background-color:white;}#diagram9 .edgeLabel .label rect{fill:white;}#diagram9 .edgeLabel .label text{fill:#000000;}#diagram9 :root{--mermaid-font-family:Microsoft YaHei,Arial,sans-serif;}</style><g><defs><marker id="diagram9_er-onlyOneStart" class="marker onlyOne er" refX="0" refY="9" markerWidth="18" markerHeight="18" orient="auto"><path d="M9,0 L9,18 M15,0 L15,18"></path></marker></defs><defs><marker id="diagram9_er-onlyOneEnd" class="marker onlyOne er" refX="18" refY="9" markerWidth="18" markerHeight="18" orient="auto"><path d="M3,0 L3,18 M9,0 L9,18"></path></marker></defs><defs><marker id="diagram9_er-zeroOrOneStart" class="marker zeroOrOne er" refX="0" refY="9" markerWidth="30" markerHeight="18" orient="auto"><circle fill="white" cx="21" cy="9" r="6"></circle><path d="M9,0 L9,18"></path></marker></defs><defs><marker id="diagram9_er-zeroOrOneEnd" class="marker zeroOrOne er" refX="30" refY="9" markerWidth="30" markerHeight="18" orient="auto"><circle fill="white" cx="9" cy="9" r="6"></circle><path d="M21,0 L21,18"></path></marker></defs><defs><marker id="diagram9_er-oneOrMoreStart" class="marker oneOrMore er" refX="18" refY="18" markerWidth="45" markerHeight="36" orient="auto"><path d="M0,18 Q 18,0 36,18 Q 18,36 0,18 M42,9 L42,27"></path></marker></defs><defs><marker id="diagram9_er-oneOrMoreEnd" class="marker oneOrMore er" refX="27" refY="18" markerWidth="45" markerHeight="36" orient="auto"><path d="M3,9 L3,27 M9,18 Q27,0 45,18 Q27,36 9,18"></path></marker></defs><defs><marker id="diagram9_er-zeroOrMoreStart" class="marker zeroOrMore er" refX="18" refY="18" markerWidth="57" markerHeight="36" orient="auto"><circle fill="white" cx="48" cy="18" r="6"></circle><path d="M0,18 Q18,0 36,18 Q18,36 0,18"></path></marker></defs><defs><marker id="diagram9_er-zeroOrMoreEnd" class="marker zeroOrMore er" refX="39" refY="18" markerWidth="57" markerHeight="36" orient="auto"><circle fill="white" cx="9" cy="18" r="6"></circle><path d="M21,18 Q39,0 57,18 Q39,36 21,18"></path></marker></defs><g class="root"><g class="clusters"></g><g class="edgePaths"><path d="M484.531,241.541L425.01,268.034C365.49,294.527,246.448,347.514,186.927,382.424C127.406,417.333,127.406,434.167,127.406,442.583L127.406,451" id="id_entity-Item-0_entity-BOM-1_0" class="edge-thickness-normal edge-pattern-solid relationshipLine" style="undefined;;;undefined" data-edge="true" data-et="edge" data-id="id_entity-Item-0_entity-BOM-1_0" data-points="W3sieCI6NDg0LjUzMTI1LCJ5IjoyNDEuNTQxMDUzNzM4Nzk0Nn0seyJ4IjoxMjcuNDA2MjUsInkiOjQwMC41fSx7IngiOjEyNy40MDYyNSwieSI6NDUxfV0=" marker-start="url(#diagram9_er-onlyOneStart)" marker-end="url(#diagram9_er-zeroOrMoreEnd)"></path><path d="M127.406,707.5L127.406,715.917C127.406,724.333,127.406,741.167,188.292,768.838C249.177,796.51,370.948,835.019,431.833,854.274L492.719,873.529" id="id_entity-BOM-1_entity-BOMLine-2_1" class="edge-thickness-normal edge-pattern-solid relationshipLine" style="undefined;;;undefined" data-edge="true" data-et="edge" data-id="id_entity-BOM-1_entity-BOMLine-2_1" data-points="W3sieCI6MTI3LjQwNjI1LCJ5Ijo3MDcuNX0seyJ4IjoxMjcuNDA2MjUsInkiOjc1OH0seyJ4Ijo0OTIuNzE4NzUsInkiOjg3My41MjkwNjczMDMwMTI3fV0=" marker-start="url(#diagram9_er-onlyOneStart)" marker-end="url(#diagram9_er-oneOrMoreEnd)"></path><path d="M765.547,328.518L776.821,340.515C788.095,352.512,810.643,376.506,821.917,418.295C833.191,460.083,833.191,519.667,833.191,579.25C833.191,638.833,833.191,698.417,820.553,737.764C807.914,777.111,782.637,796.222,769.998,805.778L757.359,815.333" id="id_entity-Item-0_entity-BOMLine-2_2" class="edge-thickness-normal edge-pattern-solid relationshipLine" style="undefined;;;undefined" data-edge="true" data-et="edge" data-id="id_entity-Item-0_entity-BOMLine-2_2" data-points="W3sieCI6NzY1LjU0Njg3NSwieSI6MzI4LjUxNzc5OTgzODYwOTh9LHsieCI6ODMzLjE5MTQwNjI1LCJ5Ijo0MDAuNX0seyJ4Ijo4MzMuMTkxNDA2MjUsInkiOjU3OS4yNX0seyJ4Ijo4MzMuMTkxNDA2MjUsInkiOjc1OH0seyJ4Ijo3NTcuMzU5Mzc1LCJ5Ijo4MTUuMzMzMzI0NzMyMTExfV0=" marker-start="url(#diagram9_er-onlyOneStart)" marker-end="url(#diagram9_er-zeroOrMoreEnd)"></path><path d="M293.574,350L300.571,358.417C307.569,366.833,321.564,383.667,339.294,404.063C357.024,424.458,378.49,448.417,389.223,460.396L399.956,472.375" id="id_entity-SalesOrder-3_entity-SalesLine-4_3" class="edge-thickness-normal edge-pattern-solid relationshipLine" style="undefined;;;undefined" data-edge="true" data-et="edge" data-id="id_entity-SalesOrder-3_entity-SalesLine-4_3" data-points="W3sieCI6MjkzLjU3MzUyMjE1MDExMjg2LCJ5IjozNTB9LHsieCI6MzM1LjU1ODU5Mzc1LCJ5Ijo0MDAuNX0seyJ4IjozOTkuOTU1NTE1MTg3OTM3MDcsInkiOjQ3Mi4zNzV9XQ==" marker-start="url(#diagram9_er-onlyOneStart)" marker-end="url(#diagram9_er-oneOrMoreEnd)"></path><path d="M688.829,350L691.969,358.417C695.109,366.833,701.388,383.667,687.377,406.548C673.365,429.429,639.061,458.358,621.91,472.823L604.758,487.287" id="id_entity-Item-0_entity-SalesLine-4_4" class="edge-thickness-normal edge-pattern-solid relationshipLine" style="undefined;;;undefined" data-edge="true" data-et="edge" data-id="id_entity-Item-0_entity-SalesLine-4_4" data-points="W3sieCI6Njg4LjgyOTMyNDIwOTkzMjMsInkiOjM1MH0seyJ4Ijo3MDcuNjY3OTY4NzUsInkiOjQwMC41fSx7IngiOjYwNC43NTc4MTI1LCJ5Ijo0ODcuMjg3MzU2NDgwNzEzNn1d" marker-start="url(#diagram9_er-onlyOneStart)" marker-end="url(#diagram9_er-zeroOrMoreEnd)"></path></g><g class="edgeLabels"><g class="edgeLabel" transform="translate(127.40625, 400.5)"><g class="label" data-id="id_entity-Item-0_entity-BOM-1_0" transform="translate(-14, -10.5)"><foreignObject width="28" height="21"><div xmlns="http://www.w3.org/1999/xhtml" class="labelBkg" style="display: table-cell; white-space: nowrap; line-height: 1.5; max-width: 200px; text-align: center;"><span class="edgeLabel"><p>主件</p></span></div></foreignObject></g></g><g class="edgeLabel" transform="translate(127.40625, 758)"><g class="label" data-id="id_entity-BOM-1_entity-BOMLine-2_1" transform="translate(-14, -10.5)"><foreignObject width="28" height="21"><div xmlns="http://www.w3.org/1999/xhtml" class="labelBkg" style="display: table-cell; white-space: nowrap; line-height: 1.5; max-width: 200px; text-align: center;"><span class="edgeLabel"><p>组成</p></span></div></foreignObject></g></g><g class="edgeLabel" transform="translate(833.19140625, 579.25)"><g class="label" data-id="id_entity-Item-0_entity-BOMLine-2_2" transform="translate(-14, -10.5)"><foreignObject width="28" height="21"><div xmlns="http://www.w3.org/1999/xhtml" class="labelBkg" style="display: table-cell; white-space: nowrap; line-height: 1.5; max-width: 200px; text-align: center;"><span class="edgeLabel"><p>组件</p></span></div></foreignObject></g></g><g class="edgeLabel" transform="translate(345.84514, 411.98107)"><g class="label" data-id="id_entity-SalesOrder-3_entity-SalesLine-4_3" transform="translate(-14, -10.5)"><foreignObject width="28" height="21"><div xmlns="http://www.w3.org/1999/xhtml" class="labelBkg" style="display: table-cell; white-space: nowrap; line-height: 1.5; max-width: 200px; text-align: center;"><span class="edgeLabel"><p>明细</p></span></div></foreignObject></g></g><g class="edgeLabel" transform="translate(676.81456, 426.51964)"><g class="label" data-id="id_entity-Item-0_entity-SalesLine-4_4" transform="translate(-28, -10.5)"><foreignObject width="56" height="21"><div xmlns="http://www.w3.org/1999/xhtml" class="labelBkg" style="display: table-cell; white-space: nowrap; line-height: 1.5; max-width: 200px; text-align: center;"><span class="edgeLabel"><p>销售产品</p></span></div></foreignObject></g></g></g><g class="nodes"><g class="node default" id="entity-Item-0" transform="translate(625.0390625, 179)"><g style=""><path d="M-140.5078125 -171 L140.5078125 -171 L140.5078125 171 L-140.5078125 171" stroke="none" stroke-width="0" fill="#eee"></path><path d="M-140.5078125 -171 C-37.06942267745637 -171, 66.36896714508725 -171, 140.5078125 -171 M-140.5078125 -171 C-42.90749260125605 -171, 54.692827297487895 -171, 140.5078125 -171 M140.5078125 -171 C140.5078125 -61.57020572785352, 140.5078125 47.85958854429296, 140.5078125 171 M140.5078125 -171 C140.5078125 -44.54481758599644, 140.5078125 81.91036482800712, 140.5078125 171 M140.5078125 171 C65.23217800669529 171, -10.043456486609415 171, -140.5078125 171 M140.5078125 171 C35.27459778752639 171, -69.95861692494722 171, -140.5078125 171 M-140.5078125 171 C-140.5078125 90.06170893485312, -140.5078125 9.12341786970623, -140.5078125 -171 M-140.5078125 171 C-140.5078125 64.3811823259132, -140.5078125 -42.2376353481736, -140.5078125 -171" stroke="#999" stroke-width="1.3" fill="none" stroke-dasharray="0 0"></path></g><g style="" class="row-rect-odd"><path d="M-140.5078125 -128.25 L140.5078125 -128.25 L140.5078125 -85.5 L-140.5078125 -85.5" stroke="none" stroke-width="0" fill="hsl(0, 0%, 100%)"></path><path d="M-140.5078125 -128.25 C-62.76846954834504 -128.25, 14.970873403309923 -128.25, 140.5078125 -128.25 M-140.5078125 -128.25 C-70.91730383135591 -128.25, -1.326795162711818 -128.25, 140.5078125 -128.25 M140.5078125 -128.25 C140.5078125 -118.58600485388817, 140.5078125 -108.92200970777634, 140.5078125 -85.5 M140.5078125 -128.25 C140.5078125 -118.27115423514337, 140.5078125 -108.29230847028674, 140.5078125 -85.5 M140.5078125 -85.5 C41.707664822154726 -85.5, -57.09248285569055 -85.5, -140.5078125 -85.5 M140.5078125 -85.5 C75.3317136481303 -85.5, 10.155614796260608 -85.5, -140.5078125 -85.5 M-140.5078125 -85.5 C-140.5078125 -102.55975643123023, -140.5078125 -119.61951286246045, -140.5078125 -128.25 M-140.5078125 -85.5 C-140.5078125 -101.90094783644969, -140.5078125 -118.30189567289938, -140.5078125 -128.25" stroke="#999" stroke-width="1.3" fill="none" stroke-dasharray="0 0"></path></g><g style="" class="row-rect-even"><path d="M-140.5078125 -85.5 L140.5078125 -85.5 L140.5078125 -42.75 L-140.5078125 -42.75" stroke="none" stroke-width="0" fill="#f4f4f4"></path><path d="M-140.5078125 -85.5 C-80.39289015650812 -85.5, -20.277967813016218 -85.5, 140.5078125 -85.5 M-140.5078125 -85.5 C-77.85419160983541 -85.5, -15.200570719670822 -85.5, 140.5078125 -85.5 M140.5078125 -85.5 C140.5078125 -74.18180975434518, 140.5078125 -62.86361950869035, 140.5078125 -42.75 M140.5078125 -85.5 C140.5078125 -69.2144801843348, 140.5078125 -52.92896036866959, 140.5078125 -42.75 M140.5078125 -42.75 C30.95356081863261 -42.75, -78.60069086273478 -42.75, -140.5078125 -42.75 M140.5078125 -42.75 C28.34079164403356 -42.75, -83.82622921193288 -42.75, -140.5078125 -42.75 M-140.5078125 -42.75 C-140.5078125 -52.171320219933605, -140.5078125 -61.5926404398672, -140.5078125 -85.5 M-140.5078125 -42.75 C-140.5078125 -51.90844014621346, -140.5078125 -61.066880292426916, -140.5078125 -85.5" stroke="#999" stroke-width="1.3" fill="none" stroke-dasharray="0 0"></path></g><g style="" class="row-rect-odd"><path d="M-140.5078125 -42.75 L140.5078125 -42.75 L140.5078125 0 L-140.5078125 0" stroke="none" stroke-width="0" fill="hsl(0, 0%, 100%)"></path><path d="M-140.5078125 -42.75 C-63.2341938985781 -42.75, 14.039424702843803 -42.75, 140.5078125 -42.75 M-140.5078125 -42.75 C-31.32787334806632 -42.75, 77.85206580386736 -42.75, 140.5078125 -42.75 M140.5078125 -42.75 C140.5078125 -30.924311829357798, 140.5078125 -19.098623658715592, 140.5078125 0 M140.5078125 -42.75 C140.5078125 -34.15638856361, 140.5078125 -25.562777127220006, 140.5078125 0 M140.5078125 0 C37.45955240524982 0, -65.58870768950035 0, -140.5078125 0 M140.5078125 0 C83.85986620811416 0, 27.21191991622831 0, -140.5078125 0 M-140.5078125 0 C-140.5078125 -14.071378413138184, -140.5078125 -28.14275682627637, -140.5078125 -42.75 M-140.5078125 0 C-140.5078125 -13.195147035447741, -140.5078125 -26.390294070895482, -140.5078125 -42.75" stroke="#999" stroke-width="1.3" fill="none" stroke-dasharray="0 0"></path></g><g style="" class="row-rect-even"><path d="M-140.5078125 0 L140.5078125 0 L140.5078125 42.75 L-140.5078125 42.75" stroke="none" stroke-width="0" fill="#f4f4f4"></path><path d="M-140.5078125 0 C-76.14834199780796 0, -11.788871495615922 0, 140.5078125 0 M-140.5078125 0 C-67.8881909790843 0, 4.731430541831401 0, 140.5078125 0 M140.5078125 0 C140.5078125 11.96986314956036, 140.5078125 23.93972629912072, 140.5078125 42.75 M140.5078125 0 C140.5078125 8.849777954557464, 140.5078125 17.699555909114927, 140.5078125 42.75 M140.5078125 42.75 C65.79029763234679 42.75, -8.927217235306415 42.75, -140.5078125 42.75 M140.5078125 42.75 C59.46569866128779 42.75, -21.576415177424423 42.75, -140.5078125 42.75 M-140.5078125 42.75 C-140.5078125 27.361270866380295, -140.5078125 11.97254173276059, -140.5078125 0 M-140.5078125 42.75 C-140.5078125 29.60035730210125, -140.5078125 16.450714604202503, -140.5078125 0" stroke="#999" stroke-width="1.3" fill="none" stroke-dasharray="0 0"></path></g><g style="" class="row-rect-odd"><path d="M-140.5078125 42.75 L140.5078125 42.75 L140.5078125 85.5 L-140.5078125 85.5" stroke="none" stroke-width="0" fill="hsl(0, 0%, 100%)"></path><path d="M-140.5078125 42.75 C-69.24802346239636 42.75, 2.011765575207278 42.75, 140.5078125 42.75 M-140.5078125 42.75 C-52.9439389036084 42.75, 34.619934692783204 42.75, 140.5078125 42.75 M140.5078125 42.75 C140.5078125 59.351754617884865, 140.5078125 75.95350923576973, 140.5078125 85.5 M140.5078125 42.75 C140.5078125 58.46598373125051, 140.5078125 74.18196746250102, 140.5078125 85.5 M140.5078125 85.5 C75.49885513325138 85.5, 10.489897766502764 85.5, -140.5078125 85.5 M140.5078125 85.5 C82.95425026354503 85.5, 25.40068802709007 85.5, -140.5078125 85.5 M-140.5078125 85.5 C-140.5078125 68.90983038225903, -140.5078125 52.319660764518076, -140.5078125 42.75 M-140.5078125 85.5 C-140.5078125 68.8164745829614, -140.5078125 52.1329491659228, -140.5078125 42.75" stroke="#999" stroke-width="1.3" fill="none" stroke-dasharray="0 0"></path></g><g style="" class="row-rect-even"><path d="M-140.5078125 85.5 L140.5078125 85.5 L140.5078125 128.25 L-140.5078125 128.25" stroke="none" stroke-width="0" fill="#f4f4f4"></path><path d="M-140.5078125 85.5 C-56.73766815996946 85.5, 27.03247618006108 85.5, 140.5078125 85.5 M-140.5078125 85.5 C-69.55733128962649 85.5, 1.393149920747021 85.5, 140.5078125 85.5 M140.5078125 85.5 C140.5078125 100.00921438794732, 140.5078125 114.51842877589465, 140.5078125 128.25 M140.5078125 85.5 C140.5078125 95.83458154343164, 140.5078125 106.16916308686328, 140.5078125 128.25 M140.5078125 128.25 C55.79252326171559 128.25, -28.922765976568826 128.25, -140.5078125 128.25 M140.5078125 128.25 C59.076530081062984 128.25, -22.354752337874032 128.25, -140.5078125 128.25 M-140.5078125 128.25 C-140.5078125 111.4981320808524, -140.5078125 94.7462641617048, -140.5078125 85.5 M-140.5078125 128.25 C-140.5078125 116.71522106840196, -140.5078125 105.18044213680392, -140.5078125 85.5" stroke="#999" stroke-width="1.3" fill="none" stroke-dasharray="0 0"></path></g><g style="" class="row-rect-odd"><path d="M-140.5078125 128.25 L140.5078125 128.25 L140.5078125 171 L-140.5078125 171" stroke="none" stroke-width="0" fill="hsl(0, 0%, 100%)"></path><path d="M-140.5078125 128.25 C-83.54360360038325 128.25, -26.5793947007665 128.25, 140.5078125 128.25 M-140.5078125 128.25 C-28.45953397458399 128.25, 83.58874455083202 128.25, 140.5078125 128.25 M140.5078125 128.25 C140.5078125 138.80204542577542, 140.5078125 149.35409085155086, 140.5078125 171 M140.5078125 128.25 C140.5078125 137.37716686306075, 140.5078125 146.5043337261215, 140.5078125 171 M140.5078125 171 C71.69983072860562 171, 2.891848957211238 171, -140.5078125 171 M140.5078125 171 C40.121454723106126 171, -60.26490305378775 171, -140.5078125 171 M-140.5078125 171 C-140.5078125 155.50923410955946, -140.5078125 140.0184682191189, -140.5078125 128.25 M-140.5078125 171 C-140.5078125 155.77924616460848, -140.5078125 140.55849232921696, -140.5078125 128.25" stroke="#999" stroke-width="1.3" fill="none" stroke-dasharray="0 0"></path></g><g class="label name" transform="translate(-17.3046875, -161.625)" style=""><foreignObject width="34.609375" height="24"><div xmlns="http://www.w3.org/1999/xhtml" style="display: table-cell; white-space: nowrap; line-height: 1.5; max-width: 135px; text-align: start;"><span class="nodeLabel"><p>Item</p></span></div></foreignObject></g><g class="label attribute-type" transform="translate(-128.0078125, -118.875)" style=""><foreignObject width="44.796875" height="24"><div xmlns="http://www.w3.org/1999/xhtml" style="display: table-cell; white-space: nowrap; line-height: 1.5; max-width: 145px; text-align: start;"><span class="nodeLabel"><p>bigint</p></span></div></foreignObject></g><g class="label attribute-name" transform="translate(-40.3984375, -118.875)" style=""><foreignObject width="14.5" height="24"><div xmlns="http://www.w3.org/1999/xhtml" style="display: table-cell; white-space: nowrap; line-height: 1.5; max-width: 115px; text-align: start;"><span class="nodeLabel"><p>id</p></span></div></foreignObject></g><g class="label attribute-keys" transform="translate(105.8984375, -118.875)" style=""><foreignObject width="19.953125" height="24"><div xmlns="http://www.w3.org/1999/xhtml" style="display: table-cell; white-space: nowrap; line-height: 1.5; max-width: 121px; text-align: start;"><span class="nodeLabel"><p>PK</p></span></div></foreignObject></g><g class="label attribute-comment" transform="translate(153.0078125, -118.875)" style=""><foreignObject width="0" height="0"><div xmlns="http://www.w3.org/1999/xhtml" style="display: table-cell; white-space: nowrap; line-height: 1.5; max-width: 100px; text-align: start;"><span class="nodeLabel"></span></div></foreignObject></g><g class="label attribute-type" transform="translate(-128.0078125, -76.125)" style=""><foreignObject width="43.828125" height="24"><div xmlns="http://www.w3.org/1999/xhtml" style="display: table-cell; white-space: nowrap; line-height: 1.5; max-width: 144px; text-align: start;"><span class="nodeLabel"><p>string</p></span></div></foreignObject></g><g class="label attribute-name" transform="translate(-40.3984375, -76.125)" style=""><foreignObject width="37.515625" height="24"><div xmlns="http://www.w3.org/1999/xhtml" style="display: table-cell; white-space: nowrap; line-height: 1.5; max-width: 138px; text-align: start;"><span class="nodeLabel"><p>code</p></span></div></foreignObject></g><g class="label attribute-keys" transform="translate(105.8984375, -76.125)" style=""><foreignObject width="22.109375" height="24"><div xmlns="http://www.w3.org/1999/xhtml" style="display: table-cell; white-space: nowrap; line-height: 1.5; max-width: 123px; text-align: start;"><span class="nodeLabel"><p>UK</p></span></div></foreignObject></g><g class="label attribute-comment" transform="translate(153.0078125, -76.125)" style=""><foreignObject width="0" height="0"><div xmlns="http://www.w3.org/1999/xhtml" style="display: table-cell; white-space: nowrap; line-height: 1.5; max-width: 100px; text-align: start;"><span class="nodeLabel"></span></div></foreignObject></g><g class="label attribute-type" transform="translate(-128.0078125, -33.375)" style=""><foreignObject width="43.828125" height="24"><div xmlns="http://www.w3.org/1999/xhtml" style="display: table-cell; white-space: nowrap; line-height: 1.5; max-width: 144px; text-align: start;"><span class="nodeLabel"><p>string</p></span></div></foreignObject></g><g class="label attribute-name" transform="translate(-40.3984375, -33.375)" style=""><foreignObject width="42.78125" height="24"><div xmlns="http://www.w3.org/1999/xhtml" style="display: table-cell; white-space: nowrap; line-height: 1.5; max-width: 143px; text-align: start;"><span class="nodeLabel"><p>name</p></span></div></foreignObject></g><g class="label attribute-keys" transform="translate(105.8984375, -33.375)" style=""><foreignObject width="0" height="0"><div xmlns="http://www.w3.org/1999/xhtml" style="display: table-cell; white-space: nowrap; line-height: 1.5; max-width: 100px; text-align: start;"><span class="nodeLabel"></span></div></foreignObject></g><g class="label attribute-comment" transform="translate(153.0078125, -33.375)" style=""><foreignObject width="0" height="0"><div xmlns="http://www.w3.org/1999/xhtml" style="display: table-cell; white-space: nowrap; line-height: 1.5; max-width: 100px; text-align: start;"><span class="nodeLabel"></span></div></foreignObject></g><g class="label attribute-type" transform="translate(-128.0078125, 9.375)" style=""><foreignObject width="43.828125" height="24"><div xmlns="http://www.w3.org/1999/xhtml" style="display: table-cell; white-space: nowrap; line-height: 1.5; max-width: 144px; text-align: start;"><span class="nodeLabel"><p>string</p></span></div></foreignObject></g><g class="label attribute-name" transform="translate(-40.3984375, 9.375)" style=""><foreignObject width="33.0625" height="24"><div xmlns="http://www.w3.org/1999/xhtml" style="display: table-cell; white-space: nowrap; line-height: 1.5; max-width: 133px; text-align: start;"><span class="nodeLabel"><p>kind</p></span></div></foreignObject></g><g class="label attribute-keys" transform="translate(105.8984375, 9.375)" style=""><foreignObject width="0" height="0"><div xmlns="http://www.w3.org/1999/xhtml" style="display: table-cell; white-space: nowrap; line-height: 1.5; max-width: 100px; text-align: start;"><span class="nodeLabel"></span></div></foreignObject></g><g class="label attribute-comment" transform="translate(153.0078125, 9.375)" style=""><foreignObject width="0" height="0"><div xmlns="http://www.w3.org/1999/xhtml" style="display: table-cell; white-space: nowrap; line-height: 1.5; max-width: 100px; text-align: start;"><span class="nodeLabel"></span></div></foreignObject></g><g class="label attribute-type" transform="translate(-128.0078125, 52.125)" style=""><foreignObject width="43.828125" height="24"><div xmlns="http://www.w3.org/1999/xhtml" style="display: table-cell; white-space: nowrap; line-height: 1.5; max-width: 144px; text-align: start;"><span class="nodeLabel"><p>string</p></span></div></foreignObject></g><g class="label attribute-name" transform="translate(-40.3984375, 52.125)" style=""><foreignObject width="29.9375" height="24"><div xmlns="http://www.w3.org/1999/xhtml" style="display: table-cell; white-space: nowrap; line-height: 1.5; max-width: 130px; text-align: start;"><span class="nodeLabel"><p>unit</p></span></div></foreignObject></g><g class="label attribute-keys" transform="translate(105.8984375, 52.125)" style=""><foreignObject width="0" height="0"><div xmlns="http://www.w3.org/1999/xhtml" style="display: table-cell; white-space: nowrap; line-height: 1.5; max-width: 100px; text-align: start;"><span class="nodeLabel"></span></div></foreignObject></g><g class="label attribute-comment" transform="translate(153.0078125, 52.125)" style=""><foreignObject width="0" height="0"><div xmlns="http://www.w3.org/1999/xhtml" style="display: table-cell; white-space: nowrap; line-height: 1.5; max-width: 100px; text-align: start;"><span class="nodeLabel"></span></div></foreignObject></g><g class="label attribute-type" transform="translate(-128.0078125, 94.875)" style=""><foreignObject width="28.984375" height="24"><div xmlns="http://www.w3.org/1999/xhtml" style="display: table-cell; white-space: nowrap; line-height: 1.5; max-width: 129px; text-align: start;"><span class="nodeLabel"><p>text</p></span></div></foreignObject></g><g class="label attribute-name" transform="translate(-40.3984375, 94.875)" style=""><foreignObject width="121.296875" height="24"><div xmlns="http://www.w3.org/1999/xhtml" style="display: table-cell; white-space: nowrap; line-height: 1.5; max-width: 221px; text-align: start;"><span class="nodeLabel"><p>traceability_info</p></span></div></foreignObject></g><g class="label attribute-keys" transform="translate(105.8984375, 94.875)" style=""><foreignObject width="0" height="0"><div xmlns="http://www.w3.org/1999/xhtml" style="display: table-cell; white-space: nowrap; line-height: 1.5; max-width: 100px; text-align: start;"><span class="nodeLabel"></span></div></foreignObject></g><g class="label attribute-comment" transform="translate(153.0078125, 94.875)" style=""><foreignObject width="0" height="0"><div xmlns="http://www.w3.org/1999/xhtml" style="display: table-cell; white-space: nowrap; line-height: 1.5; max-width: 100px; text-align: start;"><span class="nodeLabel"></span></div></foreignObject></g><g class="label attribute-type" transform="translate(-128.0078125, 137.625)" style=""><foreignObject width="62.609375" height="24"><div xmlns="http://www.w3.org/1999/xhtml" style="display: table-cell; white-space: nowrap; line-height: 1.5; max-width: 163px; text-align: start;"><span class="nodeLabel"><p>boolean</p></span></div></foreignObject></g><g class="label attribute-name" transform="translate(-40.3984375, 137.625)" style=""><foreignObject width="63.296875" height="24"><div xmlns="http://www.w3.org/1999/xhtml" style="display: table-cell; white-space: nowrap; line-height: 1.5; max-width: 163px; text-align: start;"><span class="nodeLabel"><p>is_active</p></span></div></foreignObject></g><g class="label attribute-keys" transform="translate(105.8984375, 137.625)" style=""><foreignObject width="0" height="0"><div xmlns="http://www.w3.org/1999/xhtml" style="display: table-cell; white-space: nowrap; line-height: 1.5; max-width: 100px; text-align: start;"><span class="nodeLabel"></span></div></foreignObject></g><g class="label attribute-comment" transform="translate(153.0078125, 137.625)" style=""><foreignObject width="0" height="0"><div xmlns="http://www.w3.org/1999/xhtml" style="display: table-cell; white-space: nowrap; line-height: 1.5; max-width: 100px; text-align: start;"><span class="nodeLabel"></span></div></foreignObject></g><g class="divider"><path d="M-140.5078125 -128.25 C-78.34394503361074 -128.25, -16.18007756722146 -128.25, 140.5078125 -128.25 M-140.5078125 -128.25 C-28.35065929078057 -128.25, 83.80649391843886 -128.25, 140.5078125 -128.25" stroke="#999" stroke-width="1.3" fill="none" stroke-dasharray="0 0"></path></g><g class="divider"><path d="M-52.8984375 -128.25 C-52.8984375 -63.89986408303395, -52.8984375 0.45027183393210635, -52.8984375 171 M-52.8984375 -128.25 C-52.8984375 -21.438039329121395, -52.8984375 85.37392134175721, -52.8984375 171" stroke="#999" stroke-width="1.3" fill="none" stroke-dasharray="0 0"></path></g><g class="divider"><path d="M93.3984375 -128.25 C93.3984375 -34.69870042660793, 93.3984375 58.852599146784144, 93.3984375 171 M93.3984375 -128.25 C93.3984375 -58.49389140976318, 93.3984375 11.262217180473641, 93.3984375 171" stroke="#999" stroke-width="1.3" fill="none" stroke-dasharray="0 0"></path></g><g class="divider"><path d="M-140.5078125 -128.25 C-55.01023576531996 -128.25, 30.487340969360076 -128.25, 140.5078125 -128.25 M-140.5078125 -128.25 C-35.06501694609466 -128.25, 70.37777860781068 -128.25, 140.5078125 -128.25" stroke="#999" stroke-width="1.3" fill="none" stroke-dasharray="0 0"></path></g></g><g class="node default" id="entity-BOM-1" transform="translate(127.40625, 579.25)"><g style=""><path d="M-119.2578125 -128.25 L119.2578125 -128.25 L119.2578125 128.25 L-119.2578125 128.25" stroke="none" stroke-width="0" fill="#eee"></path><path d="M-119.2578125 -128.25 C-52.98914380834654 -128.25, 13.27952488330692 -128.25, 119.2578125 -128.25 M-119.2578125 -128.25 C-48.814946254022345 -128.25, 21.62791999195531 -128.25, 119.2578125 -128.25 M119.2578125 -128.25 C119.2578125 -32.52244171357164, 119.2578125 63.205116572856724, 119.2578125 128.25 M119.2578125 -128.25 C119.2578125 -51.61862002642491, 119.2578125 25.012759947150187, 119.2578125 128.25 M119.2578125 128.25 C44.67558943393951 128.25, -29.906633632120986 128.25, -119.2578125 128.25 M119.2578125 128.25 C68.26354978247588 128.25, 17.26928706495177 128.25, -119.2578125 128.25 M-119.2578125 128.25 C-119.2578125 47.733268439513694, -119.2578125 -32.78346312097261, -119.2578125 -128.25 M-119.2578125 128.25 C-119.2578125 46.343992905691934, -119.2578125 -35.56201418861613, -119.2578125 -128.25" stroke="#999" stroke-width="1.3" fill="none" stroke-dasharray="0 0"></path></g><g style="" class="row-rect-odd"><path d="M-119.2578125 -85.5 L119.2578125 -85.5 L119.2578125 -42.75 L-119.2578125 -42.75" stroke="none" stroke-width="0" fill="hsl(0, 0%, 100%)"></path><path d="M-119.2578125 -85.5 C-24.014527214729227 -85.5, 71.22875807054155 -85.5, 119.2578125 -85.5 M-119.2578125 -85.5 C-68.58700654596237 -85.5, -17.91620059192472 -85.5, 119.2578125 -85.5 M119.2578125 -85.5 C119.2578125 -71.77240932295274, 119.2578125 -58.044818645905494, 119.2578125 -42.75 M119.2578125 -85.5 C119.2578125 -73.80823480349844, 119.2578125 -62.11646960699686, 119.2578125 -42.75 M119.2578125 -42.75 C63.1116158796493 -42.75, 6.965419259298599 -42.75, -119.2578125 -42.75 M119.2578125 -42.75 C61.700753655657664 -42.75, 4.143694811315328 -42.75, -119.2578125 -42.75 M-119.2578125 -42.75 C-119.2578125 -52.490986160756904, -119.2578125 -62.231972321513815, -119.2578125 -85.5 M-119.2578125 -42.75 C-119.2578125 -53.50469369215832, -119.2578125 -64.25938738431664, -119.2578125 -85.5" stroke="#999" stroke-width="1.3" fill="none" stroke-dasharray="0 0"></path></g><g style="" class="row-rect-even"><path d="M-119.2578125 -42.75 L119.2578125 -42.75 L119.2578125 0 L-119.2578125 0" stroke="none" stroke-width="0" fill="#f4f4f4"></path><path d="M-119.2578125 -42.75 C-32.775129629688095 -42.75, 53.70755324062381 -42.75, 119.2578125 -42.75 M-119.2578125 -42.75 C-71.00748562701543 -42.75, -22.75715875403087 -42.75, 119.2578125 -42.75 M119.2578125 -42.75 C119.2578125 -31.02737391799254, 119.2578125 -19.304747835985083, 119.2578125 0 M119.2578125 -42.75 C119.2578125 -33.695712213816535, 119.2578125 -24.64142442763307, 119.2578125 0 M119.2578125 0 C34.76016474185347 0, -49.737483016293055 0, -119.2578125 0 M119.2578125 0 C37.886379708566494 0, -43.48505308286701 0, -119.2578125 0 M-119.2578125 0 C-119.2578125 -13.29718727841504, -119.2578125 -26.59437455683008, -119.2578125 -42.75 M-119.2578125 0 C-119.2578125 -17.041109916303373, -119.2578125 -34.08221983260675, -119.2578125 -42.75" stroke="#999" stroke-width="1.3" fill="none" stroke-dasharray="0 0"></path></g><g style="" class="row-rect-odd"><path d="M-119.2578125 0 L119.2578125 0 L119.2578125 42.75 L-119.2578125 42.75" stroke="none" stroke-width="0" fill="hsl(0, 0%, 100%)"></path><path d="M-119.2578125 0 C-59.32176615252699 0, 0.6142801949460193 0, 119.2578125 0 M-119.2578125 0 C-63.02842997998623 0, -6.799047459972456 0, 119.2578125 0 M119.2578125 0 C119.2578125 15.907132584172096, 119.2578125 31.814265168344193, 119.2578125 42.75 M119.2578125 0 C119.2578125 10.712581401832697, 119.2578125 21.425162803665394, 119.2578125 42.75 M119.2578125 42.75 C40.99226755590401 42.75, -37.273277388191985 42.75, -119.2578125 42.75 M119.2578125 42.75 C51.64107778019158 42.75, -15.97565693961684 42.75, -119.2578125 42.75 M-119.2578125 42.75 C-119.2578125 26.270882071626115, -119.2578125 9.79176414325223, -119.2578125 0 M-119.2578125 42.75 C-119.2578125 30.982471361885132, -119.2578125 19.214942723770267, -119.2578125 0" stroke="#999" stroke-width="1.3" fill="none" stroke-dasharray="0 0"></path></g><g style="" class="row-rect-even"><path d="M-119.2578125 42.75 L119.2578125 42.75 L119.2578125 85.5 L-119.2578125 85.5" stroke="none" stroke-width="0" fill="#f4f4f4"></path><path d="M-119.2578125 42.75 C-35.454735910364775 42.75, 48.34834067927045 42.75, 119.2578125 42.75 M-119.2578125 42.75 C-27.063218300608852 42.75, 65.1313758987823 42.75, 119.2578125 42.75 M119.2578125 42.75 C119.2578125 57.28393688869182, 119.2578125 71.81787377738364, 119.2578125 85.5 M119.2578125 42.75 C119.2578125 58.525896290300494, 119.2578125 74.30179258060099, 119.2578125 85.5 M119.2578125 85.5 C57.04710933811325 85.5, -5.163593823773496 85.5, -119.2578125 85.5 M119.2578125 85.5 C40.07488539560802 85.5, -39.10804170878396 85.5, -119.2578125 85.5 M-119.2578125 85.5 C-119.2578125 74.72477779970521, -119.2578125 63.9495555994104, -119.2578125 42.75 M-119.2578125 85.5 C-119.2578125 73.67658992577286, -119.2578125 61.853179851545725, -119.2578125 42.75" stroke="#999" stroke-width="1.3" fill="none" stroke-dasharray="0 0"></path></g><g style="" class="row-rect-odd"><path d="M-119.2578125 85.5 L119.2578125 85.5 L119.2578125 128.25 L-119.2578125 128.25" stroke="none" stroke-width="0" fill="hsl(0, 0%, 100%)"></path><path d="M-119.2578125 85.5 C-29.16323898133878 85.5, 60.93133453732244 85.5, 119.2578125 85.5 M-119.2578125 85.5 C-33.331545408663686 85.5, 52.59472168267263 85.5, 119.2578125 85.5 M119.2578125 85.5 C119.2578125 97.13004359291853, 119.2578125 108.76008718583705, 119.2578125 128.25 M119.2578125 85.5 C119.2578125 97.07120976472997, 119.2578125 108.64241952945996, 119.2578125 128.25 M119.2578125 128.25 C53.319152794104326 128.25, -12.619506911791348 128.25, -119.2578125 128.25 M119.2578125 128.25 C60.15999536590228 128.25, 1.062178231804566 128.25, -119.2578125 128.25 M-119.2578125 128.25 C-119.2578125 114.17717881326327, -119.2578125 100.10435762652655, -119.2578125 85.5 M-119.2578125 128.25 C-119.2578125 113.11784435910448, -119.2578125 97.98568871820895, -119.2578125 85.5" stroke="#999" stroke-width="1.3" fill="none" stroke-dasharray="0 0"></path></g><g class="label name" transform="translate(-19.359375, -118.875)" style=""><foreignObject width="38.71875" height="24"><div xmlns="http://www.w3.org/1999/xhtml" style="display: table-cell; white-space: nowrap; line-height: 1.5; max-width: 139px; text-align: start;"><span class="nodeLabel"><p>BOM</p></span></div></foreignObject></g><g class="label attribute-type" transform="translate(-106.7578125, -76.125)" style=""><foreignObject width="44.796875" height="24"><div xmlns="http://www.w3.org/1999/xhtml" style="display: table-cell; white-space: nowrap; line-height: 1.5; max-width: 145px; text-align: start;"><span class="nodeLabel"><p>bigint</p></span></div></foreignObject></g><g class="label attribute-name" transform="translate(-22.0703125, -76.125)" style=""><foreignObject width="14.5" height="24"><div xmlns="http://www.w3.org/1999/xhtml" style="display: table-cell; white-space: nowrap; line-height: 1.5; max-width: 115px; text-align: start;"><span class="nodeLabel"><p>id</p></span></div></foreignObject></g><g class="label attribute-keys" transform="translate(86.8046875, -76.125)" style=""><foreignObject width="19.953125" height="24"><div xmlns="http://www.w3.org/1999/xhtml" style="display: table-cell; white-space: nowrap; line-height: 1.5; max-width: 121px; text-align: start;"><span class="nodeLabel"><p>PK</p></span></div></foreignObject></g><g class="label attribute-comment" transform="translate(131.7578125, -76.125)" style=""><foreignObject width="0" height="0"><div xmlns="http://www.w3.org/1999/xhtml" style="display: table-cell; white-space: nowrap; line-height: 1.5; max-width: 100px; text-align: start;"><span class="nodeLabel"></span></div></foreignObject></g><g class="label attribute-type" transform="translate(-106.7578125, -33.375)" style=""><foreignObject width="44.796875" height="24"><div xmlns="http://www.w3.org/1999/xhtml" style="display: table-cell; white-space: nowrap; line-height: 1.5; max-width: 145px; text-align: start;"><span class="nodeLabel"><p>bigint</p></span></div></foreignObject></g><g class="label attribute-name" transform="translate(-22.0703125, -33.375)" style=""><foreignObject width="55.828125" height="24"><div xmlns="http://www.w3.org/1999/xhtml" style="display: table-cell; white-space: nowrap; line-height: 1.5; max-width: 156px; text-align: start;"><span class="nodeLabel"><p>item_id</p></span></div></foreignObject></g><g class="label attribute-keys" transform="translate(86.8046875, -33.375)" style=""><foreignObject width="18.65625" height="24"><div xmlns="http://www.w3.org/1999/xhtml" style="display: table-cell; white-space: nowrap; line-height: 1.5; max-width: 120px; text-align: start;"><span class="nodeLabel"><p>FK</p></span></div></foreignObject></g><g class="label attribute-comment" transform="translate(131.7578125, -33.375)" style=""><foreignObject width="0" height="0"><div xmlns="http://www.w3.org/1999/xhtml" style="display: table-cell; white-space: nowrap; line-height: 1.5; max-width: 100px; text-align: start;"><span class="nodeLabel"></span></div></foreignObject></g><g class="label attribute-type" transform="translate(-106.7578125, 9.375)" style=""><foreignObject width="54.453125" height="24"><div xmlns="http://www.w3.org/1999/xhtml" style="display: table-cell; white-space: nowrap; line-height: 1.5; max-width: 155px; text-align: start;"><span class="nodeLabel"><p>integer</p></span></div></foreignObject></g><g class="label attribute-name" transform="translate(-22.0703125, 9.375)" style=""><foreignObject width="55.296875" height="24"><div xmlns="http://www.w3.org/1999/xhtml" style="display: table-cell; white-space: nowrap; line-height: 1.5; max-width: 156px; text-align: start;"><span class="nodeLabel"><p>version</p></span></div></foreignObject></g><g class="label attribute-keys" transform="translate(86.8046875, 9.375)" style=""><foreignObject width="0" height="0"><div xmlns="http://www.w3.org/1999/xhtml" style="display: table-cell; white-space: nowrap; line-height: 1.5; max-width: 100px; text-align: start;"><span class="nodeLabel"></span></div></foreignObject></g><g class="label attribute-comment" transform="translate(131.7578125, 9.375)" style=""><foreignObject width="0" height="0"><div xmlns="http://www.w3.org/1999/xhtml" style="display: table-cell; white-space: nowrap; line-height: 1.5; max-width: 100px; text-align: start;"><span class="nodeLabel"></span></div></foreignObject></g><g class="label attribute-type" transform="translate(-106.7578125, 52.125)" style=""><foreignObject width="59.6875" height="24"><div xmlns="http://www.w3.org/1999/xhtml" style="display: table-cell; white-space: nowrap; line-height: 1.5; max-width: 160px; text-align: start;"><span class="nodeLabel"><p>decimal</p></span></div></foreignObject></g><g class="label attribute-name" transform="translate(-22.0703125, 52.125)" style=""><foreignObject width="83.875" height="24"><div xmlns="http://www.w3.org/1999/xhtml" style="display: table-cell; white-space: nowrap; line-height: 1.5; max-width: 184px; text-align: start;"><span class="nodeLabel"><p>output_qty</p></span></div></foreignObject></g><g class="label attribute-keys" transform="translate(86.8046875, 52.125)" style=""><foreignObject width="0" height="0"><div xmlns="http://www.w3.org/1999/xhtml" style="display: table-cell; white-space: nowrap; line-height: 1.5; max-width: 100px; text-align: start;"><span class="nodeLabel"></span></div></foreignObject></g><g class="label attribute-comment" transform="translate(131.7578125, 52.125)" style=""><foreignObject width="0" height="0"><div xmlns="http://www.w3.org/1999/xhtml" style="display: table-cell; white-space: nowrap; line-height: 1.5; max-width: 100px; text-align: start;"><span class="nodeLabel"></span></div></foreignObject></g><g class="label attribute-type" transform="translate(-106.7578125, 94.875)" style=""><foreignObject width="43.828125" height="24"><div xmlns="http://www.w3.org/1999/xhtml" style="display: table-cell; white-space: nowrap; line-height: 1.5; max-width: 144px; text-align: start;"><span class="nodeLabel"><p>string</p></span></div></foreignObject></g><g class="label attribute-name" transform="translate(-22.0703125, 94.875)" style=""><foreignObject width="45.4375" height="24"><div xmlns="http://www.w3.org/1999/xhtml" style="display: table-cell; white-space: nowrap; line-height: 1.5; max-width: 146px; text-align: start;"><span class="nodeLabel"><p>status</p></span></div></foreignObject></g><g class="label attribute-keys" transform="translate(86.8046875, 94.875)" style=""><foreignObject width="0" height="0"><div xmlns="http://www.w3.org/1999/xhtml" style="display: table-cell; white-space: nowrap; line-height: 1.5; max-width: 100px; text-align: start;"><span class="nodeLabel"></span></div></foreignObject></g><g class="label attribute-comment" transform="translate(131.7578125, 94.875)" style=""><foreignObject width="0" height="0"><div xmlns="http://www.w3.org/1999/xhtml" style="display: table-cell; white-space: nowrap; line-height: 1.5; max-width: 100px; text-align: start;"><span class="nodeLabel"></span></div></foreignObject></g><g class="divider"><path d="M-119.2578125 -85.5 C-41.70139014023252 -85.5, 35.85503221953496 -85.5, 119.2578125 -85.5 M-119.2578125 -85.5 C-29.035219879726824 -85.5, 61.18737274054635 -85.5, 119.2578125 -85.5" stroke="#999" stroke-width="1.3" fill="none" stroke-dasharray="0 0"></path></g><g class="divider"><path d="M-34.5703125 -85.5 C-34.5703125 -39.92080648001819, -34.5703125 5.658387039963614, -34.5703125 128.25 M-34.5703125 -85.5 C-34.5703125 -16.205224505938375, -34.5703125 53.08955098812325, -34.5703125 128.25" stroke="#999" stroke-width="1.3" fill="none" stroke-dasharray="0 0"></path></g><g class="divider"><path d="M74.3046875 -85.5 C74.3046875 -17.78708859586115, 74.3046875 49.9258228082777, 74.3046875 128.25 M74.3046875 -85.5 C74.3046875 -19.21762790010993, 74.3046875 47.06474419978014, 74.3046875 128.25" stroke="#999" stroke-width="1.3" fill="none" stroke-dasharray="0 0"></path></g><g class="divider"><path d="M-119.2578125 -85.5 C-44.00417332790485 -85.5, 31.249465844190297 -85.5, 119.2578125 -85.5 M-119.2578125 -85.5 C-71.00035342317565 -85.5, -22.742894346351292 -85.5, 119.2578125 -85.5" stroke="#999" stroke-width="1.3" fill="none" stroke-dasharray="0 0"></path></g></g><g class="node default" id="entity-BOMLine-2" transform="translate(625.0390625, 915.375)"><g style=""><path d="M-132.3203125 -106.875 L132.3203125 -106.875 L132.3203125 106.875 L-132.3203125 106.875" stroke="none" stroke-width="0" fill="#eee"></path><path d="M-132.3203125 -106.875 C-46.70136467909758 -106.875, 38.91758314180484 -106.875, 132.3203125 -106.875 M-132.3203125 -106.875 C-79.16925680397215 -106.875, -26.018201107944293 -106.875, 132.3203125 -106.875 M132.3203125 -106.875 C132.3203125 -33.47592798426025, 132.3203125 39.923144031479495, 132.3203125 106.875 M132.3203125 -106.875 C132.3203125 -28.79687163929532, 132.3203125 49.28125672140936, 132.3203125 106.875 M132.3203125 106.875 C70.11544329669425 106.875, 7.91057409338849 106.875, -132.3203125 106.875 M132.3203125 106.875 C28.773861447650816 106.875, -74.77258960469837 106.875, -132.3203125 106.875 M-132.3203125 106.875 C-132.3203125 34.255985736143515, -132.3203125 -38.36302852771297, -132.3203125 -106.875 M-132.3203125 106.875 C-132.3203125 32.77308815300836, -132.3203125 -41.32882369398328, -132.3203125 -106.875" stroke="#999" stroke-width="1.3" fill="none" stroke-dasharray="0 0"></path></g><g style="" class="row-rect-odd"><path d="M-132.3203125 -64.125 L132.3203125 -64.125 L132.3203125 -21.375 L-132.3203125 -21.375" stroke="none" stroke-width="0" fill="hsl(0, 0%, 100%)"></path><path d="M-132.3203125 -64.125 C-31.07851189579449 -64.125, 70.16328870841102 -64.125, 132.3203125 -64.125 M-132.3203125 -64.125 C-47.67413307745143 -64.125, 36.97204634509714 -64.125, 132.3203125 -64.125 M132.3203125 -64.125 C132.3203125 -52.42244702703743, 132.3203125 -40.71989405407486, 132.3203125 -21.375 M132.3203125 -64.125 C132.3203125 -52.74421102653915, 132.3203125 -41.36342205307829, 132.3203125 -21.375 M132.3203125 -21.375 C57.02891947317737 -21.375, -18.262473553645265 -21.375, -132.3203125 -21.375 M132.3203125 -21.375 C49.46642060878938 -21.375, -33.387471282421245 -21.375, -132.3203125 -21.375 M-132.3203125 -21.375 C-132.3203125 -29.927900723829296, -132.3203125 -38.48080144765859, -132.3203125 -64.125 M-132.3203125 -21.375 C-132.3203125 -37.195066330008835, -132.3203125 -53.01513266001767, -132.3203125 -64.125" stroke="#999" stroke-width="1.3" fill="none" stroke-dasharray="0 0"></path></g><g style="" class="row-rect-even"><path d="M-132.3203125 -21.375 L132.3203125 -21.375 L132.3203125 21.375 L-132.3203125 21.375" stroke="none" stroke-width="0" fill="#f4f4f4"></path><path d="M-132.3203125 -21.375 C-46.61335238714038 -21.375, 39.09360772571924 -21.375, 132.3203125 -21.375 M-132.3203125 -21.375 C-31.848938035738414 -21.375, 68.62243642852317 -21.375, 132.3203125 -21.375 M132.3203125 -21.375 C132.3203125 -11.498987708573472, 132.3203125 -1.622975417146943, 132.3203125 21.375 M132.3203125 -21.375 C132.3203125 -9.60072789524976, 132.3203125 2.1735442095004807, 132.3203125 21.375 M132.3203125 21.375 C70.15452397465504 21.375, 7.988735449310084 21.375, -132.3203125 21.375 M132.3203125 21.375 C72.88642573603495 21.375, 13.452538972069902 21.375, -132.3203125 21.375 M-132.3203125 21.375 C-132.3203125 9.750669400978303, -132.3203125 -1.8736611980433935, -132.3203125 -21.375 M-132.3203125 21.375 C-132.3203125 5.754113060508802, -132.3203125 -9.866773878982396, -132.3203125 -21.375" stroke="#999" stroke-width="1.3" fill="none" stroke-dasharray="0 0"></path></g><g style="" class="row-rect-odd"><path d="M-132.3203125 21.375 L132.3203125 21.375 L132.3203125 64.125 L-132.3203125 64.125" stroke="none" stroke-width="0" fill="hsl(0, 0%, 100%)"></path><path d="M-132.3203125 21.375 C-79.2684082608888 21.375, -26.216504021777595 21.375, 132.3203125 21.375 M-132.3203125 21.375 C-66.41547001962492 21.375, -0.510627539249839 21.375, 132.3203125 21.375 M132.3203125 21.375 C132.3203125 37.53609135182484, 132.3203125 53.69718270364967, 132.3203125 64.125 M132.3203125 21.375 C132.3203125 34.802289302890664, 132.3203125 48.22957860578133, 132.3203125 64.125 M132.3203125 64.125 C67.94751781908879 64.125, 3.574723138177575 64.125, -132.3203125 64.125 M132.3203125 64.125 C44.848202475420976 64.125, -42.62390754915805 64.125, -132.3203125 64.125 M-132.3203125 64.125 C-132.3203125 50.251110398245814, -132.3203125 36.377220796491635, -132.3203125 21.375 M-132.3203125 64.125 C-132.3203125 53.61304934214287, -132.3203125 43.10109868428574, -132.3203125 21.375" stroke="#999" stroke-width="1.3" fill="none" stroke-dasharray="0 0"></path></g><g style="" class="row-rect-even"><path d="M-132.3203125 64.125 L132.3203125 64.125 L132.3203125 106.875 L-132.3203125 106.875" stroke="none" stroke-width="0" fill="#f4f4f4"></path><path d="M-132.3203125 64.125 C-65.84389628205935 64.125, 0.6325199358813052 64.125, 132.3203125 64.125 M-132.3203125 64.125 C-67.8685995922377 64.125, -3.4168866844754007 64.125, 132.3203125 64.125 M132.3203125 64.125 C132.3203125 79.78550242710635, 132.3203125 95.4460048542127, 132.3203125 106.875 M132.3203125 64.125 C132.3203125 79.90822594592196, 132.3203125 95.69145189184391, 132.3203125 106.875 M132.3203125 106.875 C66.34032290952756 106.875, 0.36033331905511545 106.875, -132.3203125 106.875 M132.3203125 106.875 C69.67478475475359 106.875, 7.029257009507177 106.875, -132.3203125 106.875 M-132.3203125 106.875 C-132.3203125 93.3516786393779, -132.3203125 79.82835727875579, -132.3203125 64.125 M-132.3203125 106.875 C-132.3203125 95.99559368706853, -132.3203125 85.11618737413707, -132.3203125 64.125" stroke="#999" stroke-width="1.3" fill="none" stroke-dasharray="0 0"></path></g><g class="label name" transform="translate(-35.0625, -97.5)" style=""><foreignObject width="70.125" height="24"><div xmlns="http://www.w3.org/1999/xhtml" style="display: table-cell; white-space: nowrap; line-height: 1.5; max-width: 170px; text-align: start;"><span class="nodeLabel"><p>BOMLine</p></span></div></foreignObject></g><g class="label attribute-type" transform="translate(-119.8203125, -54.75)" style=""><foreignObject width="44.796875" height="24"><div xmlns="http://www.w3.org/1999/xhtml" style="display: table-cell; white-space: nowrap; line-height: 1.5; max-width: 145px; text-align: start;"><span class="nodeLabel"><p>bigint</p></span></div></foreignObject></g><g class="label attribute-name" transform="translate(-35.1328125, -54.75)" style=""><foreignObject width="14.5" height="24"><div xmlns="http://www.w3.org/1999/xhtml" style="display: table-cell; white-space: nowrap; line-height: 1.5; max-width: 115px; text-align: start;"><span class="nodeLabel"><p>id</p></span></div></foreignObject></g><g class="label attribute-keys" transform="translate(99.8671875, -54.75)" style=""><foreignObject width="19.953125" height="24"><div xmlns="http://www.w3.org/1999/xhtml" style="display: table-cell; white-space: nowrap; line-height: 1.5; max-width: 121px; text-align: start;"><span class="nodeLabel"><p>PK</p></span></div></foreignObject></g><g class="label attribute-comment" transform="translate(144.8203125, -54.75)" style=""><foreignObject width="0" height="0"><div xmlns="http://www.w3.org/1999/xhtml" style="display: table-cell; white-space: nowrap; line-height: 1.5; max-width: 100px; text-align: start;"><span class="nodeLabel"></span></div></foreignObject></g><g class="label attribute-type" transform="translate(-119.8203125, -12)" style=""><foreignObject width="44.796875" height="24"><div xmlns="http://www.w3.org/1999/xhtml" style="display: table-cell; white-space: nowrap; line-height: 1.5; max-width: 145px; text-align: start;"><span class="nodeLabel"><p>bigint</p></span></div></foreignObject></g><g class="label attribute-name" transform="translate(-35.1328125, -12)" style=""><foreignObject width="57.046875" height="24"><div xmlns="http://www.w3.org/1999/xhtml" style="display: table-cell; white-space: nowrap; line-height: 1.5; max-width: 157px; text-align: start;"><span class="nodeLabel"><p>bom_id</p></span></div></foreignObject></g><g class="label attribute-keys" transform="translate(99.8671875, -12)" style=""><foreignObject width="18.65625" height="24"><div xmlns="http://www.w3.org/1999/xhtml" style="display: table-cell; white-space: nowrap; line-height: 1.5; max-width: 120px; text-align: start;"><span class="nodeLabel"><p>FK</p></span></div></foreignObject></g><g class="label attribute-comment" transform="translate(144.8203125, -12)" style=""><foreignObject width="0" height="0"><div xmlns="http://www.w3.org/1999/xhtml" style="display: table-cell; white-space: nowrap; line-height: 1.5; max-width: 100px; text-align: start;"><span class="nodeLabel"></span></div></foreignObject></g><g class="label attribute-type" transform="translate(-119.8203125, 30.75)" style=""><foreignObject width="44.796875" height="24"><div xmlns="http://www.w3.org/1999/xhtml" style="display: table-cell; white-space: nowrap; line-height: 1.5; max-width: 145px; text-align: start;"><span class="nodeLabel"><p>bigint</p></span></div></foreignObject></g><g class="label attribute-name" transform="translate(-35.1328125, 30.75)" style=""><foreignObject width="110" height="24"><div xmlns="http://www.w3.org/1999/xhtml" style="display: table-cell; white-space: nowrap; line-height: 1.5; max-width: 210px; text-align: start;"><span class="nodeLabel"><p>component_id</p></span></div></foreignObject></g><g class="label attribute-keys" transform="translate(99.8671875, 30.75)" style=""><foreignObject width="18.65625" height="24"><div xmlns="http://www.w3.org/1999/xhtml" style="display: table-cell; white-space: nowrap; line-height: 1.5; max-width: 120px; text-align: start;"><span class="nodeLabel"><p>FK</p></span></div></foreignObject></g><g class="label attribute-comment" transform="translate(144.8203125, 30.75)" style=""><foreignObject width="0" height="0"><div xmlns="http://www.w3.org/1999/xhtml" style="display: table-cell; white-space: nowrap; line-height: 1.5; max-width: 100px; text-align: start;"><span class="nodeLabel"></span></div></foreignObject></g><g class="label attribute-type" transform="translate(-119.8203125, 73.5)" style=""><foreignObject width="59.6875" height="24"><div xmlns="http://www.w3.org/1999/xhtml" style="display: table-cell; white-space: nowrap; line-height: 1.5; max-width: 160px; text-align: start;"><span class="nodeLabel"><p>decimal</p></span></div></foreignObject></g><g class="label attribute-name" transform="translate(-35.1328125, 73.5)" style=""><foreignObject width="63.453125" height="24"><div xmlns="http://www.w3.org/1999/xhtml" style="display: table-cell; white-space: nowrap; line-height: 1.5; max-width: 164px; text-align: start;"><span class="nodeLabel"><p>quantity</p></span></div></foreignObject></g><g class="label attribute-keys" transform="translate(99.8671875, 73.5)" style=""><foreignObject width="0" height="0"><div xmlns="http://www.w3.org/1999/xhtml" style="display: table-cell; white-space: nowrap; line-height: 1.5; max-width: 100px; text-align: start;"><span class="nodeLabel"></span></div></foreignObject></g><g class="label attribute-comment" transform="translate(144.8203125, 73.5)" style=""><foreignObject width="0" height="0"><div xmlns="http://www.w3.org/1999/xhtml" style="display: table-cell; white-space: nowrap; line-height: 1.5; max-width: 100px; text-align: start;"><span class="nodeLabel"></span></div></foreignObject></g><g class="divider"><path d="M-132.3203125 -64.125 C-60.50994268544902 -64.125, 11.300427129101962 -64.125, 132.3203125 -64.125 M-132.3203125 -64.125 C-53.28053207502238 -64.125, 25.759248349955243 -64.125, 132.3203125 -64.125" stroke="#999" stroke-width="1.3" fill="none" stroke-dasharray="0 0"></path></g><g class="divider"><path d="M-47.6328125 -64.125 C-47.6328125 -4.4443286800231405, -47.6328125 55.23634263995372, -47.6328125 106.875 M-47.6328125 -64.125 C-47.6328125 -18.456616164585, -47.6328125 27.21176767083, -47.6328125 106.875" stroke="#999" stroke-width="1.3" fill="none" stroke-dasharray="0 0"></path></g><g class="divider"><path d="M87.3671875 -64.125 C87.3671875 0.4023900665706748, 87.3671875 64.92978013314135, 87.3671875 106.875 M87.3671875 -64.125 C87.3671875 -4.988894654082372, 87.3671875 54.147210691835255, 87.3671875 106.875" stroke="#999" stroke-width="1.3" fill="none" stroke-dasharray="0 0"></path></g><g class="divider"><path d="M-132.3203125 -64.125 C-28.446586477742088 -64.125, 75.42713954451582 -64.125, 132.3203125 -64.125 M-132.3203125 -64.125 C-62.97757873345061 -64.125, 6.365155033098773 -64.125, 132.3203125 -64.125" stroke="#999" stroke-width="1.3" fill="none" stroke-dasharray="0 0"></path></g></g><g class="node default" id="entity-SalesOrder-3" transform="translate(151.40625, 179)"><g style=""><path d="M-143.40625 -171 L143.40625 -171 L143.40625 171 L-143.40625 171" stroke="none" stroke-width="0" fill="#eee"></path><path d="M-143.40625 -171 C-34.56376805389799 -171, 74.27871389220402 -171, 143.40625 -171 M-143.40625 -171 C-62.96401828977784 -171, 17.47821342044432 -171, 143.40625 -171 M143.40625 -171 C143.40625 -86.20192708499357, 143.40625 -1.4038541699871416, 143.40625 171 M143.40625 -171 C143.40625 -43.31463638307186, 143.40625 84.37072723385629, 143.40625 171 M143.40625 171 C51.61309911557788 171, -40.18005176884424 171, -143.40625 171 M143.40625 171 C52.848133835427205 171, -37.70998232914559 171, -143.40625 171 M-143.40625 171 C-143.40625 89.48661476737439, -143.40625 7.973229534748782, -143.40625 -171 M-143.40625 171 C-143.40625 65.44386742612693, -143.40625 -40.11226514774614, -143.40625 -171" stroke="#999" stroke-width="1.3" fill="none" stroke-dasharray="0 0"></path></g><g style="" class="row-rect-odd"><path d="M-143.40625 -128.25 L143.40625 -128.25 L143.40625 -85.5 L-143.40625 -85.5" stroke="none" stroke-width="0" fill="hsl(0, 0%, 100%)"></path><path d="M-143.40625 -128.25 C-30.47178434287744 -128.25, 82.46268131424512 -128.25, 143.40625 -128.25 M-143.40625 -128.25 C-61.61408689239231 -128.25, 20.178076215215384 -128.25, 143.40625 -128.25 M143.40625 -128.25 C143.40625 -112.29828982484415, 143.40625 -96.3465796496883, 143.40625 -85.5 M143.40625 -128.25 C143.40625 -114.12938116863273, 143.40625 -100.00876233726547, 143.40625 -85.5 M143.40625 -85.5 C40.206844483954214 -85.5, -62.99256103209157 -85.5, -143.40625 -85.5 M143.40625 -85.5 C31.15707745986299 -85.5, -81.09209508027402 -85.5, -143.40625 -85.5 M-143.40625 -85.5 C-143.40625 -98.71328979952244, -143.40625 -111.92657959904489, -143.40625 -128.25 M-143.40625 -85.5 C-143.40625 -100.08401006515575, -143.40625 -114.66802013031149, -143.40625 -128.25" stroke="#999" stroke-width="1.3" fill="none" stroke-dasharray="0 0"></path></g><g style="" class="row-rect-even"><path d="M-143.40625 -85.5 L143.40625 -85.5 L143.40625 -42.75 L-143.40625 -42.75" stroke="none" stroke-width="0" fill="#f4f4f4"></path><path d="M-143.40625 -85.5 C-35.389239146199984 -85.5, 72.62777170760003 -85.5, 143.40625 -85.5 M-143.40625 -85.5 C-78.24909397807649 -85.5, -13.091937956152975 -85.5, 143.40625 -85.5 M143.40625 -85.5 C143.40625 -75.95617449273556, 143.40625 -66.41234898547113, 143.40625 -42.75 M143.40625 -85.5 C143.40625 -69.44726548337165, 143.40625 -53.39453096674331, 143.40625 -42.75 M143.40625 -42.75 C34.31094295157659 -42.75, -74.78436409684682 -42.75, -143.40625 -42.75 M143.40625 -42.75 C61.890858323467924 -42.75, -19.62453335306415 -42.75, -143.40625 -42.75 M-143.40625 -42.75 C-143.40625 -57.8202192024619, -143.40625 -72.8904384049238, -143.40625 -85.5 M-143.40625 -42.75 C-143.40625 -58.8886908942053, -143.40625 -75.0273817884106, -143.40625 -85.5" stroke="#999" stroke-width="1.3" fill="none" stroke-dasharray="0 0"></path></g><g style="" class="row-rect-odd"><path d="M-143.40625 -42.75 L143.40625 -42.75 L143.40625 0 L-143.40625 0" stroke="none" stroke-width="0" fill="hsl(0, 0%, 100%)"></path><path d="M-143.40625 -42.75 C-41.19709662711561 -42.75, 61.012056745768774 -42.75, 143.40625 -42.75 M-143.40625 -42.75 C-80.1586872780392 -42.75, -16.911124556078377 -42.75, 143.40625 -42.75 M143.40625 -42.75 C143.40625 -30.219733713352884, 143.40625 -17.689467426705768, 143.40625 0 M143.40625 -42.75 C143.40625 -32.287312876429965, 143.40625 -21.824625752859934, 143.40625 0 M143.40625 0 C58.79268649797798 0, -25.820877004044036 0, -143.40625 0 M143.40625 0 C42.27981993195935 0, -58.846610136081296 0, -143.40625 0 M-143.40625 0 C-143.40625 -14.889955192284697, -143.40625 -29.779910384569394, -143.40625 -42.75 M-143.40625 0 C-143.40625 -16.946725431708735, -143.40625 -33.89345086341747, -143.40625 -42.75" stroke="#999" stroke-width="1.3" fill="none" stroke-dasharray="0 0"></path></g><g style="" class="row-rect-even"><path d="M-143.40625 0 L143.40625 0 L143.40625 42.75 L-143.40625 42.75" stroke="none" stroke-width="0" fill="#f4f4f4"></path><path d="M-143.40625 0 C-57.67323811572824 0, 28.059773768543522 0, 143.40625 0 M-143.40625 0 C-40.368680045304046 0, 62.66888990939191 0, 143.40625 0 M143.40625 0 C143.40625 11.550031731950064, 143.40625 23.100063463900128, 143.40625 42.75 M143.40625 0 C143.40625 12.485864863803346, 143.40625 24.971729727606693, 143.40625 42.75 M143.40625 42.75 C52.08294862411243 42.75, -39.240352751775134 42.75, -143.40625 42.75 M143.40625 42.75 C69.03748739910084 42.75, -5.33127520179832 42.75, -143.40625 42.75 M-143.40625 42.75 C-143.40625 31.39259561565879, -143.40625 20.03519123131758, -143.40625 0 M-143.40625 42.75 C-143.40625 25.990816477612515, -143.40625 9.231632955225031, -143.40625 0" stroke="#999" stroke-width="1.3" fill="none" stroke-dasharray="0 0"></path></g><g style="" class="row-rect-odd"><path d="M-143.40625 42.75 L143.40625 42.75 L143.40625 85.5 L-143.40625 85.5" stroke="none" stroke-width="0" fill="hsl(0, 0%, 100%)"></path><path d="M-143.40625 42.75 C-61.00633910675177 42.75, 21.393571786496466 42.75, 143.40625 42.75 M-143.40625 42.75 C-46.48902779250484 42.75, 50.428194414990315 42.75, 143.40625 42.75 M143.40625 42.75 C143.40625 59.61538878810832, 143.40625 76.48077757621664, 143.40625 85.5 M143.40625 42.75 C143.40625 52.041998054875506, 143.40625 61.33399610975102, 143.40625 85.5 M143.40625 85.5 C81.63632049038026 85.5, 19.866390980760528 85.5, -143.40625 85.5 M143.40625 85.5 C28.751207955380764 85.5, -85.90383408923847 85.5, -143.40625 85.5 M-143.40625 85.5 C-143.40625 72.98212130799327, -143.40625 60.46424261598654, -143.40625 42.75 M-143.40625 85.5 C-143.40625 75.1347738444236, -143.40625 64.76954768884721, -143.40625 42.75" stroke="#999" stroke-width="1.3" fill="none" stroke-dasharray="0 0"></path></g><g style="" class="row-rect-even"><path d="M-143.40625 85.5 L143.40625 85.5 L143.40625 128.25 L-143.40625 128.25" stroke="none" stroke-width="0" fill="#f4f4f4"></path><path d="M-143.40625 85.5 C-40.17209578300606 85.5, 63.062058433987886 85.5, 143.40625 85.5 M-143.40625 85.5 C-78.71937570859744 85.5, -14.03250141719488 85.5, 143.40625 85.5 M143.40625 85.5 C143.40625 100.67587583691801, 143.40625 115.85175167383602, 143.40625 128.25 M143.40625 85.5 C143.40625 97.32810139128756, 143.40625 109.15620278257514, 143.40625 128.25 M143.40625 128.25 C69.63589415906893 128.25, -4.134461681862149 128.25, -143.40625 128.25 M143.40625 128.25 C32.017315197567854 128.25, -79.37161960486429 128.25, -143.40625 128.25 M-143.40625 128.25 C-143.40625 118.49821023965978, -143.40625 108.74642047931957, -143.40625 85.5 M-143.40625 128.25 C-143.40625 118.54159479673125, -143.40625 108.83318959346249, -143.40625 85.5" stroke="#999" stroke-width="1.3" fill="none" stroke-dasharray="0 0"></path></g><g style="" class="row-rect-odd"><path d="M-143.40625 128.25 L143.40625 128.25 L143.40625 171 L-143.40625 171" stroke="none" stroke-width="0" fill="hsl(0, 0%, 100%)"></path><path d="M-143.40625 128.25 C-84.19725135476577 128.25, -24.98825270953155 128.25, 143.40625 128.25 M-143.40625 128.25 C-46.909061242058726 128.25, 49.58812751588255 128.25, 143.40625 128.25 M143.40625 128.25 C143.40625 142.33611052976394, 143.40625 156.42222105952789, 143.40625 171 M143.40625 128.25 C143.40625 142.7576627000247, 143.40625 157.2653254000494, 143.40625 171 M143.40625 171 C72.86957219014903 171, 2.3328943802980575 171, -143.40625 171 M143.40625 171 C52.43101740139602 171, -38.54421519720796 171, -143.40625 171 M-143.40625 171 C-143.40625 154.4855668439763, -143.40625 137.97113368795257, -143.40625 128.25 M-143.40625 171 C-143.40625 161.10656547079222, -143.40625 151.21313094158444, -143.40625 128.25" stroke="#999" stroke-width="1.3" fill="none" stroke-dasharray="0 0"></path></g><g class="label name" transform="translate(-41.5859375, -161.625)" style=""><foreignObject width="83.171875" height="24"><div xmlns="http://www.w3.org/1999/xhtml" style="display: table-cell; white-space: nowrap; line-height: 1.5; max-width: 184px; text-align: start;"><span class="nodeLabel"><p>SalesOrder</p></span></div></foreignObject></g><g class="label attribute-type" transform="translate(-130.90625, -118.875)" style=""><foreignObject width="44.796875" height="24"><div xmlns="http://www.w3.org/1999/xhtml" style="display: table-cell; white-space: nowrap; line-height: 1.5; max-width: 145px; text-align: start;"><span class="nodeLabel"><p>bigint</p></span></div></foreignObject></g><g class="label attribute-name" transform="translate(-37.625, -118.875)" style=""><foreignObject width="14.5" height="24"><div xmlns="http://www.w3.org/1999/xhtml" style="display: table-cell; white-space: nowrap; line-height: 1.5; max-width: 115px; text-align: start;"><span class="nodeLabel"><p>id</p></span></div></foreignObject></g><g class="label attribute-keys" transform="translate(108.796875, -118.875)" style=""><foreignObject width="19.953125" height="24"><div xmlns="http://www.w3.org/1999/xhtml" style="display: table-cell; white-space: nowrap; line-height: 1.5; max-width: 121px; text-align: start;"><span class="nodeLabel"><p>PK</p></span></div></foreignObject></g><g class="label attribute-comment" transform="translate(155.90625, -118.875)" style=""><foreignObject width="0" height="0"><div xmlns="http://www.w3.org/1999/xhtml" style="display: table-cell; white-space: nowrap; line-height: 1.5; max-width: 100px; text-align: start;"><span class="nodeLabel"></span></div></foreignObject></g><g class="label attribute-type" transform="translate(-130.90625, -76.125)" style=""><foreignObject width="43.828125" height="24"><div xmlns="http://www.w3.org/1999/xhtml" style="display: table-cell; white-space: nowrap; line-height: 1.5; max-width: 144px; text-align: start;"><span class="nodeLabel"><p>string</p></span></div></foreignObject></g><g class="label attribute-name" transform="translate(-37.625, -76.125)" style=""><foreignObject width="60.125" height="24"><div xmlns="http://www.w3.org/1999/xhtml" style="display: table-cell; white-space: nowrap; line-height: 1.5; max-width: 161px; text-align: start;"><span class="nodeLabel"><p>number</p></span></div></foreignObject></g><g class="label attribute-keys" transform="translate(108.796875, -76.125)" style=""><foreignObject width="22.109375" height="24"><div xmlns="http://www.w3.org/1999/xhtml" style="display: table-cell; white-space: nowrap; line-height: 1.5; max-width: 123px; text-align: start;"><span class="nodeLabel"><p>UK</p></span></div></foreignObject></g><g class="label attribute-comment" transform="translate(155.90625, -76.125)" style=""><foreignObject width="0" height="0"><div xmlns="http://www.w3.org/1999/xhtml" style="display: table-cell; white-space: nowrap; line-height: 1.5; max-width: 100px; text-align: start;"><span class="nodeLabel"></span></div></foreignObject></g><g class="label attribute-type" transform="translate(-130.90625, -33.375)" style=""><foreignObject width="43.828125" height="24"><div xmlns="http://www.w3.org/1999/xhtml" style="display: table-cell; white-space: nowrap; line-height: 1.5; max-width: 144px; text-align: start;"><span class="nodeLabel"><p>string</p></span></div></foreignObject></g><g class="label attribute-name" transform="translate(-37.625, -33.375)" style=""><foreignObject width="121.421875" height="24"><div xmlns="http://www.w3.org/1999/xhtml" style="display: table-cell; white-space: nowrap; line-height: 1.5; max-width: 221px; text-align: start;"><span class="nodeLabel"><p>customer_name</p></span></div></foreignObject></g><g class="label attribute-keys" transform="translate(108.796875, -33.375)" style=""><foreignObject width="0" height="0"><div xmlns="http://www.w3.org/1999/xhtml" style="display: table-cell; white-space: nowrap; line-height: 1.5; max-width: 100px; text-align: start;"><span class="nodeLabel"></span></div></foreignObject></g><g class="label attribute-comment" transform="translate(155.90625, -33.375)" style=""><foreignObject width="0" height="0"><div xmlns="http://www.w3.org/1999/xhtml" style="display: table-cell; white-space: nowrap; line-height: 1.5; max-width: 100px; text-align: start;"><span class="nodeLabel"></span></div></foreignObject></g><g class="label attribute-type" transform="translate(-130.90625, 9.375)" style=""><foreignObject width="54.453125" height="24"><div xmlns="http://www.w3.org/1999/xhtml" style="display: table-cell; white-space: nowrap; line-height: 1.5; max-width: 155px; text-align: start;"><span class="nodeLabel"><p>integer</p></span></div></foreignObject></g><g class="label attribute-name" transform="translate(-37.625, 9.375)" style=""><foreignObject width="55.5625" height="24"><div xmlns="http://www.w3.org/1999/xhtml" style="display: table-cell; white-space: nowrap; line-height: 1.5; max-width: 156px; text-align: start;"><span class="nodeLabel"><p>priority</p></span></div></foreignObject></g><g class="label attribute-keys" transform="translate(108.796875, 9.375)" style=""><foreignObject width="0" height="0"><div xmlns="http://www.w3.org/1999/xhtml" style="display: table-cell; white-space: nowrap; line-height: 1.5; max-width: 100px; text-align: start;"><span class="nodeLabel"></span></div></foreignObject></g><g class="label attribute-comment" transform="translate(155.90625, 9.375)" style=""><foreignObject width="0" height="0"><div xmlns="http://www.w3.org/1999/xhtml" style="display: table-cell; white-space: nowrap; line-height: 1.5; max-width: 100px; text-align: start;"><span class="nodeLabel"></span></div></foreignObject></g><g class="label attribute-type" transform="translate(-130.90625, 52.125)" style=""><foreignObject width="33.984375" height="24"><div xmlns="http://www.w3.org/1999/xhtml" style="display: table-cell; white-space: nowrap; line-height: 1.5; max-width: 134px; text-align: start;"><span class="nodeLabel"><p>date</p></span></div></foreignObject></g><g class="label attribute-name" transform="translate(-37.625, 52.125)" style=""><foreignObject width="70.328125" height="24"><div xmlns="http://www.w3.org/1999/xhtml" style="display: table-cell; white-space: nowrap; line-height: 1.5; max-width: 170px; text-align: start;"><span class="nodeLabel"><p>due_date</p></span></div></foreignObject></g><g class="label attribute-keys" transform="translate(108.796875, 52.125)" style=""><foreignObject width="0" height="0"><div xmlns="http://www.w3.org/1999/xhtml" style="display: table-cell; white-space: nowrap; line-height: 1.5; max-width: 100px; text-align: start;"><span class="nodeLabel"></span></div></foreignObject></g><g class="label attribute-comment" transform="translate(155.90625, 52.125)" style=""><foreignObject width="0" height="0"><div xmlns="http://www.w3.org/1999/xhtml" style="display: table-cell; white-space: nowrap; line-height: 1.5; max-width: 100px; text-align: start;"><span class="nodeLabel"></span></div></foreignObject></g><g class="label attribute-type" transform="translate(-130.90625, 94.875)" style=""><foreignObject width="43.828125" height="24"><div xmlns="http://www.w3.org/1999/xhtml" style="display: table-cell; white-space: nowrap; line-height: 1.5; max-width: 144px; text-align: start;"><span class="nodeLabel"><p>string</p></span></div></foreignObject></g><g class="label attribute-name" transform="translate(-37.625, 94.875)" style=""><foreignObject width="45.4375" height="24"><div xmlns="http://www.w3.org/1999/xhtml" style="display: table-cell; white-space: nowrap; line-height: 1.5; max-width: 146px; text-align: start;"><span class="nodeLabel"><p>status</p></span></div></foreignObject></g><g class="label attribute-keys" transform="translate(108.796875, 94.875)" style=""><foreignObject width="0" height="0"><div xmlns="http://www.w3.org/1999/xhtml" style="display: table-cell; white-space: nowrap; line-height: 1.5; max-width: 100px; text-align: start;"><span class="nodeLabel"></span></div></foreignObject></g><g class="label attribute-comment" transform="translate(155.90625, 94.875)" style=""><foreignObject width="0" height="0"><div xmlns="http://www.w3.org/1999/xhtml" style="display: table-cell; white-space: nowrap; line-height: 1.5; max-width: 100px; text-align: start;"><span class="nodeLabel"></span></div></foreignObject></g><g class="label attribute-type" transform="translate(-130.90625, 137.625)" style=""><foreignObject width="68.28125" height="24"><div xmlns="http://www.w3.org/1999/xhtml" style="display: table-cell; white-space: nowrap; line-height: 1.5; max-width: 168px; text-align: start;"><span class="nodeLabel"><p>datetime</p></span></div></foreignObject></g><g class="label attribute-name" transform="translate(-37.625, 137.625)" style=""><foreignObject width="78.953125" height="24"><div xmlns="http://www.w3.org/1999/xhtml" style="display: table-cell; white-space: nowrap; line-height: 1.5; max-width: 179px; text-align: start;"><span class="nodeLabel"><p>created_at</p></span></div></foreignObject></g><g class="label attribute-keys" transform="translate(108.796875, 137.625)" style=""><foreignObject width="0" height="0"><div xmlns="http://www.w3.org/1999/xhtml" style="display: table-cell; white-space: nowrap; line-height: 1.5; max-width: 100px; text-align: start;"><span class="nodeLabel"></span></div></foreignObject></g><g class="label attribute-comment" transform="translate(155.90625, 137.625)" style=""><foreignObject width="0" height="0"><div xmlns="http://www.w3.org/1999/xhtml" style="display: table-cell; white-space: nowrap; line-height: 1.5; max-width: 100px; text-align: start;"><span class="nodeLabel"></span></div></foreignObject></g><g class="divider"><path d="M-143.40625 -128.25 C-51.5741623618792 -128.25, 40.25792527624159 -128.25, 143.40625 -128.25 M-143.40625 -128.25 C-74.30072100314068 -128.25, -5.19519200628136 -128.25, 143.40625 -128.25" stroke="#999" stroke-width="1.3" fill="none" stroke-dasharray="0 0"></path></g><g class="divider"><path d="M-50.125 -128.25 C-50.125 -62.07182698563645, -50.125 4.106346028727103, -50.125 171 M-50.125 -128.25 C-50.125 -29.30679600733403, -50.125 69.63640798533194, -50.125 171" stroke="#999" stroke-width="1.3" fill="none" stroke-dasharray="0 0"></path></g><g class="divider"><path d="M96.296875 -128.25 C96.296875 -30.118794998744633, 96.296875 68.01241000251073, 96.296875 171 M96.296875 -128.25 C96.296875 -24.017276797862323, 96.296875 80.21544640427535, 96.296875 171" stroke="#999" stroke-width="1.3" fill="none" stroke-dasharray="0 0"></path></g><g class="divider"><path d="M-143.40625 -128.25 C-53.2323721050126 -128.25, 36.9415057899748 -128.25, 143.40625 -128.25 M-143.40625 -128.25 C-49.25908186593625 -128.25, 44.888086268127495 -128.25, 143.40625 -128.25" stroke="#999" stroke-width="1.3" fill="none" stroke-dasharray="0 0"></path></g></g><g class="node default" id="entity-SalesLine-4" transform="translate(495.7109375, 579.25)"><g style=""><path d="M-109.046875 -106.875 L109.046875 -106.875 L109.046875 106.875 L-109.046875 106.875" stroke="none" stroke-width="0" fill="#eee"></path><path d="M-109.046875 -106.875 C-50.1241635227308 -106.875, 8.798547954538407 -106.875, 109.046875 -106.875 M-109.046875 -106.875 C-35.79282373360141 -106.875, 37.46122753279718 -106.875, 109.046875 -106.875 M109.046875 -106.875 C109.046875 -43.517040306964226, 109.046875 19.840919386071548, 109.046875 106.875 M109.046875 -106.875 C109.046875 -38.5818176405965, 109.046875 29.711364718807005, 109.046875 106.875 M109.046875 106.875 C52.00353281101634 106.875, -5.039809377967316 106.875, -109.046875 106.875 M109.046875 106.875 C44.59338104258167 106.875, -19.860112914836662 106.875, -109.046875 106.875 M-109.046875 106.875 C-109.046875 49.59129033888789, -109.046875 -7.692419322224225, -109.046875 -106.875 M-109.046875 106.875 C-109.046875 55.82289204534789, -109.046875 4.770784090695784, -109.046875 -106.875" stroke="#999" stroke-width="1.3" fill="none" stroke-dasharray="0 0"></path></g><g style="" class="row-rect-odd"><path d="M-109.046875 -64.125 L109.046875 -64.125 L109.046875 -21.375 L-109.046875 -21.375" stroke="none" stroke-width="0" fill="hsl(0, 0%, 100%)"></path><path d="M-109.046875 -64.125 C-31.896003546049812 -64.125, 45.254867907900376 -64.125, 109.046875 -64.125 M-109.046875 -64.125 C-31.45951818539784 -64.125, 46.12783862920432 -64.125, 109.046875 -64.125 M109.046875 -64.125 C109.046875 -51.11817160413941, 109.046875 -38.111343208278825, 109.046875 -21.375 M109.046875 -64.125 C109.046875 -47.71032365330392, 109.046875 -31.295647306607833, 109.046875 -21.375 M109.046875 -21.375 C31.291679805413708 -21.375, -46.463515389172585 -21.375, -109.046875 -21.375 M109.046875 -21.375 C65.0808968271021 -21.375, 21.11491865420419 -21.375, -109.046875 -21.375 M-109.046875 -21.375 C-109.046875 -32.64258393636019, -109.046875 -43.91016787272038, -109.046875 -64.125 M-109.046875 -21.375 C-109.046875 -31.46028436195703, -109.046875 -41.54556872391406, -109.046875 -64.125" stroke="#999" stroke-width="1.3" fill="none" stroke-dasharray="0 0"></path></g><g style="" class="row-rect-even"><path d="M-109.046875 -21.375 L109.046875 -21.375 L109.046875 21.375 L-109.046875 21.375" stroke="none" stroke-width="0" fill="#f4f4f4"></path><path d="M-109.046875 -21.375 C-47.26683643145225 -21.375, 14.513202137095504 -21.375, 109.046875 -21.375 M-109.046875 -21.375 C-34.5435095512786 -21.375, 39.95985589744279 -21.375, 109.046875 -21.375 M109.046875 -21.375 C109.046875 -6.331299533353176, 109.046875 8.712400933293647, 109.046875 21.375 M109.046875 -21.375 C109.046875 -4.719632036982961, 109.046875 11.935735926034077, 109.046875 21.375 M109.046875 21.375 C33.87207203425547 21.375, -41.302730931489066 21.375, -109.046875 21.375 M109.046875 21.375 C27.108171547001263 21.375, -54.830531905997475 21.375, -109.046875 21.375 M-109.046875 21.375 C-109.046875 11.827719910309725, -109.046875 2.280439820619449, -109.046875 -21.375 M-109.046875 21.375 C-109.046875 6.819168507275341, -109.046875 -7.736662985449318, -109.046875 -21.375" stroke="#999" stroke-width="1.3" fill="none" stroke-dasharray="0 0"></path></g><g style="" class="row-rect-odd"><path d="M-109.046875 21.375 L109.046875 21.375 L109.046875 64.125 L-109.046875 64.125" stroke="none" stroke-width="0" fill="hsl(0, 0%, 100%)"></path><path d="M-109.046875 21.375 C-45.52960579135446 21.375, 17.987663417291074 21.375, 109.046875 21.375 M-109.046875 21.375 C-51.947685805151664 21.375, 5.151503389696671 21.375, 109.046875 21.375 M109.046875 21.375 C109.046875 33.94635734116029, 109.046875 46.51771468232057, 109.046875 64.125 M109.046875 21.375 C109.046875 31.420275910978404, 109.046875 41.46555182195681, 109.046875 64.125 M109.046875 64.125 C55.23743079172651 64.125, 1.4279865834530199 64.125, -109.046875 64.125 M109.046875 64.125 C39.102355259473015 64.125, -30.84216448105397 64.125, -109.046875 64.125 M-109.046875 64.125 C-109.046875 53.13390857229886, -109.046875 42.142817144597714, -109.046875 21.375 M-109.046875 64.125 C-109.046875 54.30521418858604, -109.046875 44.485428377172084, -109.046875 21.375" stroke="#999" stroke-width="1.3" fill="none" stroke-dasharray="0 0"></path></g><g style="" class="row-rect-even"><path d="M-109.046875 64.125 L109.046875 64.125 L109.046875 106.875 L-109.046875 106.875" stroke="none" stroke-width="0" fill="#f4f4f4"></path><path d="M-109.046875 64.125 C-52.90804701984388 64.125, 3.230780960312245 64.125, 109.046875 64.125 M-109.046875 64.125 C-47.43421484891219 64.125, 14.178445302175618 64.125, 109.046875 64.125 M109.046875 64.125 C109.046875 79.63714155564018, 109.046875 95.14928311128037, 109.046875 106.875 M109.046875 64.125 C109.046875 79.73248373071196, 109.046875 95.33996746142392, 109.046875 106.875 M109.046875 106.875 C45.27927395674639 106.875, -18.488327086507226 106.875, -109.046875 106.875 M109.046875 106.875 C57.70562320242755 106.875, 6.364371404855106 106.875, -109.046875 106.875 M-109.046875 106.875 C-109.046875 94.05304259123135, -109.046875 81.23108518246269, -109.046875 64.125 M-109.046875 106.875 C-109.046875 94.03135914239492, -109.046875 81.18771828478985, -109.046875 64.125" stroke="#999" stroke-width="1.3" fill="none" stroke-dasharray="0 0"></path></g><g class="label name" transform="translate(-35.1171875, -97.5)" style=""><foreignObject width="70.234375" height="24"><div xmlns="http://www.w3.org/1999/xhtml" style="display: table-cell; white-space: nowrap; line-height: 1.5; max-width: 170px; text-align: start;"><span class="nodeLabel"><p>SalesLine</p></span></div></foreignObject></g><g class="label attribute-type" transform="translate(-96.546875, -54.75)" style=""><foreignObject width="44.796875" height="24"><div xmlns="http://www.w3.org/1999/xhtml" style="display: table-cell; white-space: nowrap; line-height: 1.5; max-width: 145px; text-align: start;"><span class="nodeLabel"><p>bigint</p></span></div></foreignObject></g><g class="label attribute-name" transform="translate(-11.859375, -54.75)" style=""><foreignObject width="14.5" height="24"><div xmlns="http://www.w3.org/1999/xhtml" style="display: table-cell; white-space: nowrap; line-height: 1.5; max-width: 115px; text-align: start;"><span class="nodeLabel"><p>id</p></span></div></foreignObject></g><g class="label attribute-keys" transform="translate(76.59375, -54.75)" style=""><foreignObject width="19.953125" height="24"><div xmlns="http://www.w3.org/1999/xhtml" style="display: table-cell; white-space: nowrap; line-height: 1.5; max-width: 121px; text-align: start;"><span class="nodeLabel"><p>PK</p></span></div></foreignObject></g><g class="label attribute-comment" transform="translate(121.546875, -54.75)" style=""><foreignObject width="0" height="0"><div xmlns="http://www.w3.org/1999/xhtml" style="display: table-cell; white-space: nowrap; line-height: 1.5; max-width: 100px; text-align: start;"><span class="nodeLabel"></span></div></foreignObject></g><g class="label attribute-type" transform="translate(-96.546875, -12)" style=""><foreignObject width="44.796875" height="24"><div xmlns="http://www.w3.org/1999/xhtml" style="display: table-cell; white-space: nowrap; line-height: 1.5; max-width: 145px; text-align: start;"><span class="nodeLabel"><p>bigint</p></span></div></foreignObject></g><g class="label attribute-name" transform="translate(-11.859375, -12)" style=""><foreignObject width="63.140625" height="24"><div xmlns="http://www.w3.org/1999/xhtml" style="display: table-cell; white-space: nowrap; line-height: 1.5; max-width: 163px; text-align: start;"><span class="nodeLabel"><p>order_id</p></span></div></foreignObject></g><g class="label attribute-keys" transform="translate(76.59375, -12)" style=""><foreignObject width="18.65625" height="24"><div xmlns="http://www.w3.org/1999/xhtml" style="display: table-cell; white-space: nowrap; line-height: 1.5; max-width: 120px; text-align: start;"><span class="nodeLabel"><p>FK</p></span></div></foreignObject></g><g class="label attribute-comment" transform="translate(121.546875, -12)" style=""><foreignObject width="0" height="0"><div xmlns="http://www.w3.org/1999/xhtml" style="display: table-cell; white-space: nowrap; line-height: 1.5; max-width: 100px; text-align: start;"><span class="nodeLabel"></span></div></foreignObject></g><g class="label attribute-type" transform="translate(-96.546875, 30.75)" style=""><foreignObject width="44.796875" height="24"><div xmlns="http://www.w3.org/1999/xhtml" style="display: table-cell; white-space: nowrap; line-height: 1.5; max-width: 145px; text-align: start;"><span class="nodeLabel"><p>bigint</p></span></div></foreignObject></g><g class="label attribute-name" transform="translate(-11.859375, 30.75)" style=""><foreignObject width="55.828125" height="24"><div xmlns="http://www.w3.org/1999/xhtml" style="display: table-cell; white-space: nowrap; line-height: 1.5; max-width: 156px; text-align: start;"><span class="nodeLabel"><p>item_id</p></span></div></foreignObject></g><g class="label attribute-keys" transform="translate(76.59375, 30.75)" style=""><foreignObject width="18.65625" height="24"><div xmlns="http://www.w3.org/1999/xhtml" style="display: table-cell; white-space: nowrap; line-height: 1.5; max-width: 120px; text-align: start;"><span class="nodeLabel"><p>FK</p></span></div></foreignObject></g><g class="label attribute-comment" transform="translate(121.546875, 30.75)" style=""><foreignObject width="0" height="0"><div xmlns="http://www.w3.org/1999/xhtml" style="display: table-cell; white-space: nowrap; line-height: 1.5; max-width: 100px; text-align: start;"><span class="nodeLabel"></span></div></foreignObject></g><g class="label attribute-type" transform="translate(-96.546875, 73.5)" style=""><foreignObject width="59.6875" height="24"><div xmlns="http://www.w3.org/1999/xhtml" style="display: table-cell; white-space: nowrap; line-height: 1.5; max-width: 160px; text-align: start;"><span class="nodeLabel"><p>decimal</p></span></div></foreignObject></g><g class="label attribute-name" transform="translate(-11.859375, 73.5)" style=""><foreignObject width="63.453125" height="24"><div xmlns="http://www.w3.org/1999/xhtml" style="display: table-cell; white-space: nowrap; line-height: 1.5; max-width: 164px; text-align: start;"><span class="nodeLabel"><p>quantity</p></span></div></foreignObject></g><g class="label attribute-keys" transform="translate(76.59375, 73.5)" style=""><foreignObject width="0" height="0"><div xmlns="http://www.w3.org/1999/xhtml" style="display: table-cell; white-space: nowrap; line-height: 1.5; max-width: 100px; text-align: start;"><span class="nodeLabel"></span></div></foreignObject></g><g class="label attribute-comment" transform="translate(121.546875, 73.5)" style=""><foreignObject width="0" height="0"><div xmlns="http://www.w3.org/1999/xhtml" style="display: table-cell; white-space: nowrap; line-height: 1.5; max-width: 100px; text-align: start;"><span class="nodeLabel"></span></div></foreignObject></g><g class="divider"><path d="M-109.046875 -64.125 C-63.54957833238762 -64.125, -18.052281664775236 -64.125, 109.046875 -64.125 M-109.046875 -64.125 C-41.715096259880525 -64.125, 25.61668248023895 -64.125, 109.046875 -64.125" stroke="#999" stroke-width="1.3" fill="none" stroke-dasharray="0 0"></path></g><g class="divider"><path d="M-24.359375 -64.125 C-24.359375 -24.438469158409895, -24.359375 15.248061683180211, -24.359375 106.875 M-24.359375 -64.125 C-24.359375 -6.685277017770019, -24.359375 50.75444596445996, -24.359375 106.875" stroke="#999" stroke-width="1.3" fill="none" stroke-dasharray="0 0"></path></g><g class="divider"><path d="M64.09375 -64.125 C64.09375 -28.82914429658959, 64.09375 6.466711406820821, 64.09375 106.875 M64.09375 -64.125 C64.09375 -5.120427583854045, 64.09375 53.88414483229191, 64.09375 106.875" stroke="#999" stroke-width="1.3" fill="none" stroke-dasharray="0 0"></path></g><g class="divider"><path d="M-109.046875 -64.125 C-41.65004765671608 -64.125, 25.746779686567834 -64.125, 109.046875 -64.125 M-109.046875 -64.125 C-40.01957603071256 -64.125, 29.007722938574886 -64.125, 109.046875 -64.125" stroke="#999" stroke-width="1.3" fill="none" stroke-dasharray="0 0"></path></g></g></g></g></g></svg>